# xmcd
#
# Track frame offsets:
#	150
#	18322
#	32518
#	47358
#	60933
#	76779
#	91698
#	105300
#	119049
#	132793
#
# Disc length: 1986 seconds
#
# Revision: 0
# Processed by: cddbd v1.5.1PL2 Copyright (c) Steve Scherf et al.
# Submitted via: audiograbber 1.83.01
#
DISCID=6507c00a
DTITLE=T. Graham Brown - The Best Of T. Graham Brown
DYEAR=1992
DGENRE=Treaditional Country
TTITLE0=Don't Go To Stangers
TTITLE1=Hell And High Water
TTITLE2=Darlene
TTITLE3=I Tell It Like It Used To Be
TTITLE4=The Last Resort
TTITLE5=She Couldn't Love Me Anymore
TTITLE6=I Wish That I Could Hurt That Way Again
TTITLE7=Brilliant Conversationlist
TTITLE8=Come As You Were
TTITLE9=The Power Of Love
EXTD=
EXTT0=
EXTT1=
EXTT2=
EXTT3=
EXTT4=
EXTT5=
EXTT6=
EXTT7=
EXTT8=
EXTT9=
PLAYORDER=
